<?xml version="1.0" encoding="UTF-8"?>
<svg xmlns="http://www.w3.org/2000/svg" version="1.1" xmlns:xlink="http://www.w3.org/1999/xlink" viewBox="0 0 100 100">
  <defs>
    <style>
      .cls-1, .cls-2, .cls-3 {
        fill: #fff;
      }

      .cls-2 {
        fill-rule: evenodd;
      }

      .cls-4 {
        clip-path: url(#clippath-1);
      }

      .cls-5 {
        clip-path: url(#clippath-3);
      }

      .cls-3 {
        clip-rule: evenodd;
      }

      .cls-6 {
        clip-path: url(#clippath-2);
      }

      .cls-7 {
        clip-path: url(#clippath);
      }

      .cls-8 {
        fill: #c9ff00;
      }
    </style>
    <clipPath id="clippath">
      <path class="cls-3" d="M44.17,32.73c.38-5.35,5.48-11.78,5.48-11.78,0,0,5.1,6.43,5.48,11.78.38,5.35-5.48,11.18-5.48,11.18,0,0-5.86-5.83-5.48-11.18M41.68,29.27c-5.19-5.02-15.07-5.89-15.07-5.89,3.03,16.26,15.61,19.5,15.61,19.5,0,0-9.72-7.24-11.67-15.61,0,0,7.45,2.45,10.48,5.36,0,0-.11,2.74,1.46,6.63,1.57,3.89,4.92,6.4,4.92,6.4l2.24,1.65,2.24-1.65s3.35-2.51,4.92-6.4c1.57-3.89,1.46-6.63,1.46-6.63,3.03-2.92,10.48-5.36,10.48-5.36-1.94,8.37-11.67,15.61-11.67,15.61,0,0,12.59-3.24,15.61-19.5,0,0-9.89.86-15.07,5.89,0,0-2.27-8.43-7.97-13.83-5.7,5.4-7.97,13.83-7.97,13.83Z"/>
    </clipPath>
    <clipPath id="clippath-1">
      <path class="cls-3" d="M69.03,42.92c-7.82,1.3-23.03,12.6-29.11,15.5-6.08,2.9-9.7,2.32-9.7,2.32,7.68,2.46,16.37-1.45,19.99-4.35,3.62-2.9,11.3-7.1,16.22-9.46,2.19-1.05,4.68-1.68,6.63.15,1.16,1.08,1.7,2.42.87,3.86-1.34,2.36-5.55,3.8-8.09,3.42-3.91-.58-5.94-1.88-5.94-1.88l-3.33,1.88s4.78,3.48,12.31,3.19c9.9-.38,11.03-14.77,1.82-14.77-.52,0-1.08.05-1.67.15"/>
    </clipPath>
    <clipPath id="clippath-2">
      <path class="cls-3" d="M30.42,57.55c7.53.29,12.31-3.19,12.31-3.19l-3.33-1.88s-2.03,1.3-5.94,1.88c-2.54.38-6.75-1.06-8.09-3.42-.82-1.45-.29-2.78.87-3.86,1.95-1.83,4.44-1.2,6.63-.15,3.56,1.71,8.57,4.38,12.44,6.83.78-.48,1.59-.99,2.42-1.51.21-.13.42-.26.64-.4-6.35-3.94-13.51-8.16-18.11-8.93-.59-.1-1.15-.15-1.67-.15-9.21,0-8.08,14.39,1.82,14.77"/>
    </clipPath>
    <clipPath id="clippath-3">
      <path class="cls-3" d="M51.03,57.44c-.07.05-.13.11-.21.16,4.22,2.63,11.62,5.27,18.27,3.14,0,0-3.62.58-9.7-2.32-1.39-.66-3.25-1.76-5.39-3.08-1.16.75-2.18,1.46-2.96,2.09"/>
    </clipPath>
  </defs>
  <!-- Generator: Adobe Illustrator 28.6.0, SVG Export Plug-In . SVG Version: 1.2.0 Build 709)  -->
  <g>
    <g id="Layer_1">
      <g>
        <path class="cls-1" d="M56.67,78.34c0,4.93-2.8,9.29-8.47,9.29-5.33,0-8.27-4.07-8.27-9.2s3.05-9.2,8.48-9.2c5.07,0,8.25,3.76,8.25,9.11M42.7,78.36c0,3.8,1.89,7.04,5.61,7.04,4.02,0,5.59-3.32,5.59-7.02s-1.78-6.91-5.6-6.91-5.6,3.13-5.6,6.89Z"/>
        <path class="cls-1" d="M62.95,79.63v7.74h-2.62v-17.89h7.15c3.72,0,5.7,2.02,5.7,4.81,0,2.34-1.33,3.73-2.96,4.21,1.35.38,2.63,1.44,2.63,4.56v.79c0,1.23-.04,2.75.24,3.52h-2.56c-.32-.77-.32-2.16-.32-3.88v-.36c0-2.43-.68-3.51-3.82-3.51h-3.45ZM62.95,77.43h3.77c2.62,0,3.75-.99,3.75-2.9s-1.18-2.84-3.51-2.84h-4v5.74Z"/>
        <polygon class="cls-8" points="78.59 90.2 76.58 90.2 76.58 89.77 81.09 89.77 81.09 90.2 79.07 90.2 79.07 95.77 78.59 95.77 78.59 90.2"/>
        <path class="cls-1" d="M40.97,95.84v-3.36h.38c.52.81,1.75,2.68,1.96,3.05h0c-.03-.48-.02-.98-.02-1.53v-1.52h.26v3.36h-.35c-.5-.78-1.75-2.73-1.99-3.1h0c.02.44.02.93.02,1.54v1.56h-.26Z"/>
        <path class="cls-1" d="M45.5,95.84v-3.36h.38c.52.81,1.75,2.68,1.96,3.05h0c-.03-.48-.02-.98-.02-1.53v-1.52h.26v3.36h-.35c-.5-.78-1.75-2.73-1.99-3.1h0c.02.44.02.93.02,1.54v1.56h-.26Z"/>
        <path class="cls-1" d="M52.82,94.09c0,.92-.49,1.75-1.53,1.75-.94,0-1.5-.76-1.5-1.73s.53-1.73,1.53-1.73c.92,0,1.49.72,1.49,1.7M50.07,94.1c0,.77.43,1.5,1.23,1.5.87,0,1.23-.71,1.23-1.51s-.41-1.47-1.22-1.47c-.86,0-1.24.71-1.24,1.47Z"/>
        <path class="cls-1" d="M55.36,95.84l-1.25-3.36h.28l.65,1.76c.19.51.4,1.07.47,1.35h0c.07-.25.3-.84.49-1.33l.68-1.77h.27l-1.3,3.36h-.31Z"/>
        <path class="cls-1" d="M58.48,94.68l-.43,1.16h-.26l1.23-3.36h.31l1.29,3.36h-.28l-.44-1.16h-1.42ZM59.81,94.44c-.37-1-.57-1.48-.63-1.7h0c-.08.25-.3.85-.6,1.7h1.24Z"/>
        <polygon class="cls-1" points="62.43 92.72 61.31 92.72 61.31 92.48 63.83 92.48 63.83 92.72 62.7 92.72 62.7 95.84 62.43 95.84 62.43 92.72"/>
        <rect class="cls-1" x="65.29" y="92.48" width=".26" height="3.36"/>
        <path class="cls-1" d="M70.27,94.09c0,.92-.49,1.75-1.53,1.75-.94,0-1.5-.76-1.5-1.73s.53-1.73,1.53-1.73c.92,0,1.49.72,1.49,1.7M67.52,94.1c0,.77.43,1.5,1.23,1.5.87,0,1.23-.71,1.23-1.51s-.41-1.47-1.22-1.47c-.86,0-1.24.71-1.24,1.47Z"/>
        <path class="cls-1" d="M71.97,95.84v-3.36h.38c.52.81,1.75,2.68,1.96,3.05h0c-.03-.48-.02-.98-.02-1.53v-1.52h.26v3.36h-.36c-.5-.78-1.75-2.73-1.99-3.1h0c.02.44.02.93.02,1.54v1.56h-.26Z"/>
        <path class="cls-8" d="M37.02,24.11c1.31,0,2.74,0,4.25,0,1.38-3.2,3.54-7.2,6.67-10.37l1.75-1.77,1.75,1.77c3.13,3.17,5.29,7.16,6.67,10.37,1.51,0,2.94,0,4.25,0,3.72-1.64,7.41-2.31,9.1-2.55-.56-6.54-5.49-11.78-11.71-12.28-2.26-3.03-5.72-5.01-9.63-5.11-3.91-.1-7.45,1.69-9.86,4.59-6.6.17-12,5.73-12.38,12.79,1.67.24,5.39.9,9.13,2.55"/>
        <path class="cls-1" d="M10.3,82.35c.47,2.08,1.9,3.17,4.4,3.17,2.65,0,3.72-1.22,3.72-2.83,0-1.73-.88-2.66-4.36-3.5-4.34-1.05-5.75-2.55-5.75-5.05,0-2.74,2.03-4.9,6.07-4.9,4.35,0,6.13,2.48,6.37,4.88h-2.69c-.29-1.5-1.22-2.78-3.77-2.78-2.06,0-3.23.92-3.23,2.54s.96,2.23,4.05,2.97c5.12,1.24,6.07,3.21,6.07,5.55,0,2.96-2.2,5.21-6.64,5.21s-6.53-2.42-6.91-5.26h2.69Z"/>
        <path class="cls-1" d="M24.53,69.49h6.91c3.54,0,5.96,1.98,5.96,5.27,0,3.56-2.59,5.4-6.09,5.4h-4.1v7.22h-2.67v-17.89ZM27.2,77.95h3.92c2.32,0,3.56-1.1,3.56-3.13s-1.46-3.13-3.47-3.13h-4.01v6.26Z"/>
        <path class="cls-1" d="M79.96,82.25l-1.82,5.13h-2.63l6.31-17.89h3.29l6.59,17.89h-2.82l-1.89-5.13h-7.02ZM86.33,80c-1.62-4.53-2.54-7.01-2.93-8.42h-.03c-.44,1.56-1.46,4.55-2.76,8.42h5.72Z"/>
        <polygon class="cls-8" points="85.51 92.82 82.45 92.82 82.45 95.34 85.8 95.34 85.73 95.77 81.98 95.77 81.98 89.77 85.66 89.77 85.66 90.2 82.45 90.2 82.45 92.39 85.51 92.39 85.51 92.82"/>
        <polygon class="cls-8" points="90.69 95.77 88.88 93.07 88.87 93.07 87.08 95.77 86.54 95.77 88.59 92.72 86.62 89.77 87.16 89.77 88.88 92.33 88.89 92.33 90.64 89.77 91.18 89.77 89.15 92.69 91.24 95.77 90.69 95.77"/>
        <polygon class="cls-1" points="10.33 94.19 8.61 94.19 8.61 95.6 10.49 95.6 10.45 95.84 8.35 95.84 8.35 92.48 10.41 92.48 10.41 92.72 8.61 92.72 8.61 93.95 10.33 93.95 10.33 94.19"/>
        <path class="cls-1" d="M12.74,95.84v-3.36h.38c.52.81,1.75,2.68,1.96,3.05h0c-.03-.48-.02-.98-.02-1.53v-1.52h.26v3.36h-.35c-.5-.78-1.75-2.73-1.99-3.1h0c.02.44.02.93.02,1.54v1.56h-.26Z"/>
        <path class="cls-1" d="M17.28,92.48h1.11c.92,0,1.56.64,1.56,1.65s-.62,1.71-1.56,1.71h-1.11v-3.36ZM17.54,95.6h.81c.89,0,1.32-.62,1.32-1.45,0-.74-.39-1.42-1.32-1.42h-.81v2.88Z"/>
        <polygon class="cls-1" points="21.65 92.48 21.91 92.48 21.91 95.6 23.71 95.6 23.67 95.84 21.65 95.84 21.65 92.48"/>
        <polygon class="cls-1" points="27.16 94.19 25.45 94.19 25.45 95.6 27.33 95.6 27.29 95.84 25.19 95.84 25.19 92.48 27.25 92.48 27.25 92.72 25.45 92.72 25.45 93.95 27.16 93.95 27.16 94.19"/>
        <path class="cls-1" d="M29,94.9c.1.45.4.71.95.71.61,0,.85-.31.85-.67s-.17-.61-.91-.8c-.71-.18-1.02-.41-1.02-.89,0-.44.32-.85,1.04-.85s1.05.45,1.09.86h-.27c-.08-.36-.31-.62-.84-.62-.48,0-.75.23-.75.6s.22.51.84.67c.94.24,1.08.61,1.08,1.02,0,.49-.36.92-1.14.92-.84,0-1.15-.49-1.21-.94h.27Z"/>
        <path class="cls-1" d="M32.8,94.9c.1.45.4.71.95.71.61,0,.85-.31.85-.67s-.17-.61-.91-.8c-.71-.18-1.02-.41-1.02-.89,0-.44.32-.85,1.04-.85s1.05.45,1.09.86h-.27c-.08-.36-.31-.62-.84-.62-.48,0-.75.23-.75.6s.22.51.84.67c.95.24,1.08.61,1.08,1.02,0,.49-.36.92-1.14.92-.84,0-1.15-.49-1.21-.94h.27Z"/>
        <rect class="cls-1" x="38.76" y="92.48" width=".26" height="3.36"/>
        <path class="cls-1" d="M89.68,67.71c.37,0,.72.07,1.05.21.33.14.62.33.87.58.25.25.44.54.58.87.14.33.21.68.21,1.05s-.07.71-.2,1.04c-.14.33-.33.62-.58.87-.25.25-.54.45-.87.59-.33.14-.68.21-1.05.21-.49,0-.94-.12-1.36-.36-.42-.24-.75-.57-.99-.98-.24-.41-.37-.87-.37-1.36,0-.37.07-.72.21-1.05.14-.32.34-.61.59-.86.25-.25.54-.45.87-.58.33-.14.68-.21,1.04-.21M89.68,68.15c-.41,0-.78.1-1.13.3-.35.2-.62.47-.83.82-.2.34-.31.72-.31,1.13s.1.79.31,1.14c.2.35.48.62.83.82.35.2.72.3,1.13.3s.79-.1,1.13-.3c.34-.2.62-.48.82-.83.2-.35.3-.73.3-1.14,0-.31-.06-.6-.17-.87-.12-.27-.28-.51-.49-.72-.21-.21-.45-.37-.72-.49-.27-.12-.56-.17-.88-.17ZM88.96,71.91h-.47v-2.91h1c.2,0,.36,0,.48.02.12.01.22.04.31.08.14.06.25.15.33.28.08.12.13.25.13.39,0,.23-.08.42-.23.58-.15.16-.35.25-.6.27.12.05.23.12.32.23.09.11.21.27.36.5l.35.57h-.57l-.26-.46c-.17-.31-.32-.52-.42-.62-.11-.1-.26-.16-.45-.16h-.28v1.23ZM88.96,69.4v.87h.57c.15,0,.28-.01.39-.04.1-.03.18-.07.24-.14.05-.07.08-.15.08-.26,0-.18-.07-.3-.2-.35-.13-.05-.31-.08-.55-.08h-.54Z"/>
        <g>
          <path class="cls-2" d="M44.17,32.73c.38-5.35,5.48-11.78,5.48-11.78,0,0,5.1,6.43,5.48,11.78.38,5.35-5.48,11.18-5.48,11.18,0,0-5.86-5.83-5.48-11.18M41.68,29.27c-5.19-5.02-15.07-5.89-15.07-5.89,3.03,16.26,15.61,19.5,15.61,19.5,0,0-9.72-7.24-11.67-15.61,0,0,7.45,2.45,10.48,5.36,0,0-.11,2.74,1.46,6.63,1.57,3.89,4.92,6.4,4.92,6.4l2.24,1.65,2.24-1.65s3.35-2.51,4.92-6.4c1.57-3.89,1.46-6.63,1.46-6.63,3.03-2.92,10.48-5.36,10.48-5.36-1.94,8.37-11.67,15.61-11.67,15.61,0,0,12.59-3.24,15.61-19.5,0,0-9.89.86-15.07,5.89,0,0-2.27-8.43-7.97-13.83-5.7,5.4-7.97,13.83-7.97,13.83Z"/>
          <g class="cls-7">
            <rect class="cls-1" x="26.61" y="15.44" width="46.08" height="31.88"/>
          </g>
        </g>
        <g>
          <path class="cls-2" d="M69.03,42.92c-7.82,1.3-23.03,12.6-29.11,15.5-6.08,2.9-9.7,2.32-9.7,2.32,7.68,2.46,16.37-1.45,19.99-4.35,3.62-2.9,11.3-7.1,16.22-9.46,2.19-1.05,4.68-1.68,6.63.15,1.16,1.08,1.7,2.42.87,3.86-1.34,2.36-5.55,3.8-8.09,3.42-3.91-.58-5.94-1.88-5.94-1.88l-3.33,1.88s4.78,3.48,12.31,3.19c9.9-.38,11.03-14.77,1.82-14.77-.52,0-1.08.05-1.67.15"/>
          <g class="cls-4">
            <rect class="cls-1" x="30.21" y="42.78" width="49.7" height="20.42"/>
          </g>
        </g>
        <g>
          <path class="cls-2" d="M30.42,57.55c7.53.29,12.31-3.19,12.31-3.19l-3.33-1.88s-2.03,1.3-5.94,1.88c-2.54.38-6.75-1.06-8.09-3.42-.82-1.45-.29-2.78.87-3.86,1.95-1.83,4.44-1.2,6.63-.15,3.56,1.71,8.57,4.38,12.44,6.83.78-.48,1.59-.99,2.42-1.51.21-.13.42-.26.64-.4-6.35-3.94-13.51-8.16-18.11-8.93-.59-.1-1.15-.15-1.67-.15-9.21,0-8.08,14.39,1.82,14.77"/>
          <g class="cls-6">
            <rect class="cls-1" x="19.39" y="42.78" width="28.99" height="15.06"/>
          </g>
        </g>
        <g>
          <path class="cls-2" d="M51.03,57.44c-.07.05-.13.11-.21.16,4.22,2.63,11.62,5.27,18.27,3.14,0,0-3.62.58-9.7-2.32-1.39-.66-3.25-1.76-5.39-3.08-1.16.75-2.18,1.46-2.96,2.09"/>
          <g class="cls-5">
            <rect class="cls-1" x="50.83" y="55.34" width="18.27" height="7.52"/>
          </g>
        </g>
      </g>
    </g>
  </g>
</svg>