<?xml version="1.0" encoding="utf-8"?>
<!-- Generator: Adobe Illustrator 22.1.0, SVG Export Plug-In . SVG Version: 6.00 Build 0)  -->
<svg version="1.1" id="OBJECT" xmlns="http://www.w3.org/2000/svg" xmlns:xlink="http://www.w3.org/1999/xlink" x="0px" y="0px"
	 viewBox="0 0 3555.6 2000" style="enable-background:new 0 0 3555.6 2000;" xml:space="preserve">
<style type="text/css">
	.st0{fill:url(#SVGID_1_);}
	.st1{fill:url(#SVGID_2_);}
	.st2{fill:url(#SVGID_3_);}
	.st3{fill:url(#SVGID_4_);}
	.st4{fill:url(#SVGID_5_);}
	.st5{fill:url(#SVGID_6_);}
	.st6{fill:url(#SVGID_7_);}
	.st7{fill:url(#SVGID_8_);}
	.st8{fill:url(#SVGID_9_);}
</style>
<g>
	
		<radialGradient id="SVGID_1_" cx="1777.7778" cy="3307.5901" r="1922.5602" gradientTransform="matrix(1 0 0 0.7802 0 -1580.5818)" gradientUnits="userSpaceOnUse">
		<stop  offset="0" style="stop-color:#4153E1"/>
		<stop  offset="0.431" style="stop-color:#4157E1"/>
		<stop  offset="0.835" style="stop-color:#4162E1"/>
		<stop  offset="1" style="stop-color:#4169E1"/>
	</radialGradient>
	<rect x="0" class="st0" width="3555.6" height="2000"/>
	<g>
		<linearGradient id="SVGID_2_" gradientUnits="userSpaceOnUse" x1="1996.0144" y1="-131.5209" x2="1679.3649" y2="646.2166">
			<stop  offset="0" style="stop-color:#4169E1"/>
			<stop  offset="0.165" style="stop-color:#4162E1"/>
			<stop  offset="0.569" style="stop-color:#4157E1"/>
			<stop  offset="1" style="stop-color:#4153E1"/>
		</linearGradient>
		<path class="st1" d="M3555.6,0v809c-246.6,58.6-528,72.4-777.8-57.1c-344.2-178.5-350.9-485.1-625.9-540.7
			c-364.7-73.7-546.3,492.1-1066.7,540.7C571.3,799.9,182.7,588.9,0,463.7V0H3555.6z"/>
		<linearGradient id="SVGID_3_" gradientUnits="userSpaceOnUse" x1="1.214406e-05" y1="386.5086" x2="1596.3705" y2="386.5086">
			<stop  offset="0" style="stop-color:#4169E1"/>
			<stop  offset="0.165" style="stop-color:#4162E1"/>
			<stop  offset="0.569" style="stop-color:#4157E1"/>
			<stop  offset="1" style="stop-color:#4153E1"/>
		</linearGradient>
		<path class="st2" d="M1596.4,0c-60.4,27.5-118.8,59-174.2,93c-271.1,166.4-504.3,391.6-785.6,540.1
			C443.2,735.2,211.7,795.1,0,765.4V0H1596.4z"/>
		<linearGradient id="SVGID_4_" gradientUnits="userSpaceOnUse" x1="2437.1482" y1="531.4815" x2="3555.5557" y2="531.4815">
			<stop  offset="0" style="stop-color:#4169E1"/>
			<stop  offset="0.165" style="stop-color:#4162E1"/>
			<stop  offset="0.569" style="stop-color:#4157E1"/>
			<stop  offset="1" style="stop-color:#4153E1"/>
		</linearGradient>
		<path class="st3" d="M3555.6,0v1063C3326,928.3,3119.1,755.4,2948,551.5C2786.4,359,2645,131.6,2437.1,0H3555.6z"/>
		<linearGradient id="SVGID_5_" gradientUnits="userSpaceOnUse" x1="807.7038" y1="408.4933" x2="2748.4817" y2="408.4933">
			<stop  offset="0" style="stop-color:#4169E1"/>
			<stop  offset="0.165" style="stop-color:#4162E1"/>
			<stop  offset="0.569" style="stop-color:#4157E1"/>
			<stop  offset="1" style="stop-color:#4153E1"/>
		</linearGradient>
		<path class="st4" d="M2748.5,300c-140.3,4-278.9,33.6-405.8,93.8c-144.3,68.4-268.2,172.5-401.2,261
			c-133,88.5-283.4,163.8-443.2,162.3c-251.6-2.4-457-189.2-690.6-286c209.4-138.1,400.1-306.4,614.4-438
			c55.4-34,113.9-65.5,174.2-93h840.8C2557.6,76.3,2655.8,184.7,2748.5,300z"/>
	</g>
	<g>
		
			<linearGradient id="SVGID_6_" gradientUnits="userSpaceOnUse" x1="1996.4587" y1="71.4791" x2="1679.8092" y2="849.2166" gradientTransform="matrix(-1 0 0 -1 3556 2203)">
			<stop  offset="0" style="stop-color:#4169E1"/>
			<stop  offset="0.165" style="stop-color:#4162E1"/>
			<stop  offset="0.569" style="stop-color:#4157E1"/>
			<stop  offset="1" style="stop-color:#4153E1"/>
		</linearGradient>
		<path class="st5" d="M0,2000v-809c246.6-58.6,528-72.4,777.8,57.1c344.2,178.5,350.9,485.1,625.9,540.7
			c364.7,73.7,546.3-492.1,1066.7-540.7c513.9-48,902.5,162.9,1085.2,288.2V2000H0z"/>
		
			<linearGradient id="SVGID_7_" gradientUnits="userSpaceOnUse" x1="0.4444" y1="589.5086" x2="1596.8149" y2="589.5086" gradientTransform="matrix(-1 0 0 -1 3556 2203)">
			<stop  offset="0" style="stop-color:#4169E1"/>
			<stop  offset="0.165" style="stop-color:#4162E1"/>
			<stop  offset="0.569" style="stop-color:#4157E1"/>
			<stop  offset="1" style="stop-color:#4153E1"/>
		</linearGradient>
		<path class="st6" d="M1959.2,2000c60.4-27.5,118.8-59,174.2-93c271.1-166.4,504.3-391.6,785.6-540.1
			c193.3-102.1,424.8-162,636.5-132.2V2000H1959.2z"/>
		
			<linearGradient id="SVGID_8_" gradientUnits="userSpaceOnUse" x1="2437.5928" y1="734.4815" x2="3556" y2="734.4815" gradientTransform="matrix(-1 0 0 -1 3556 2203)">
			<stop  offset="0" style="stop-color:#4169E1"/>
			<stop  offset="0.165" style="stop-color:#4162E1"/>
			<stop  offset="0.569" style="stop-color:#4157E1"/>
			<stop  offset="1" style="stop-color:#4153E1"/>
		</linearGradient>
		<path class="st7" d="M0,2000V937c229.5,134.6,436.5,307.6,607.6,511.4c161.6,192.5,303,419.9,510.9,551.5H0z"/>
		
			<linearGradient id="SVGID_9_" gradientUnits="userSpaceOnUse" x1="808.1482" y1="611.4932" x2="2748.926" y2="611.4932" gradientTransform="matrix(-1 0 0 -1 3556 2203)">
			<stop  offset="0" style="stop-color:#4169E1"/>
			<stop  offset="0.165" style="stop-color:#4162E1"/>
			<stop  offset="0.569" style="stop-color:#4157E1"/>
			<stop  offset="1" style="stop-color:#4153E1"/>
		</linearGradient>
		<path class="st8" d="M807.1,1700c140.3-4,278.9-33.6,405.8-93.8c144.3-68.4,268.2-172.5,401.2-261
			c133-88.5,283.4-163.8,443.2-162.3c251.6,2.4,457,189.2,690.6,286c-209.4,138.1-400.1,306.4-614.4,438
			c-55.4,34-113.9,65.5-174.2,93h-840.8C998,1923.7,899.8,1815.3,807.1,1700z"/>
	</g>
</g>
</svg>
